<svg xmlns="http://www.w3.org/2000/svg" viewBox="0 0 580 460" fill="none"><g stroke="#0b64f4"><ellipse cx="335" cy="235" rx="204" ry="148" transform="rotate(-26 335 235)" opacity=".13"/><ellipse cx="335" cy="235" rx="203" ry="170" transform="rotate(28 335 235)" opacity=".1"/><path d="M335.00 401.00L314.29 401.10" stroke-width=".75" opacity="0.174"/><path d="M335.00 401.00L338.32 392.30" stroke-width=".75" opacity="0.151"/><path d="M335.00 401.00L364.82 399.06" stroke-width=".75" opacity="0.174"/><path d="M335.00 401.00L281.35 391.35" stroke-width=".75" opacity="0.168"/><path d="M314.29 401.10L281.35 391.35" stroke-width=".75" opacity="0.168"/><path d="M314.29 401.10L316.83 395.63" stroke-width=".75" opacity="0.185"/><path d="M314.29 401.10L364.82 399.06" stroke-width=".75" opacity="0.185"/><path d="M338.32 392.30L303.34 379.36" stroke-width=".75" opacity="0.136"/><path d="M338.32 392.30L385.39 386.69" stroke-width=".75" opacity="0.151"/><path d="M338.32 392.30L369.13 371.96" stroke-width=".75" opacity="0.129"/><path d="M364.82 399.06L408.30 386.74" stroke-width=".75" opacity="0.189"/><path d="M364.82 399.06L363.32 386.73" stroke-width=".75" opacity="0.196"/><path d="M281.35 391.35L258.50 385.07" stroke-width=".75" opacity="0.168"/><path d="M281.35 391.35L257.59 370.75" stroke-width=".75" opacity="0.147"/><path d="M385.39 386.69L427.30 371.13" stroke-width=".75" opacity="0.155"/><path d="M385.39 386.69L369.13 371.96" stroke-width=".75" opacity="0.129"/><path d="M385.39 386.69L409.37 355.63" stroke-width=".75" opacity="0.128"/><path d="M316.83 395.63L274.41 379.48" stroke-width=".75" opacity="0.212"/><path d="M316.83 395.63L363.32 386.73" stroke-width=".75" opacity="0.212"/><path d="M303.34 379.36L322.75 359.73" stroke-width=".75" opacity="0.114"/><path d="M303.34 379.36L257.59 370.75" stroke-width=".75" opacity="0.136"/><path d="M303.34 379.36L265.18 350.72" stroke-width=".75" opacity="0.121"/><path d="M408.30 386.74L419.65 373.52" stroke-width=".75" opacity="0.189"/><path d="M408.30 386.74L427.30 371.13" stroke-width=".75" opacity="0.162"/><path d="M408.30 386.74L453.71 357.42" stroke-width=".75" opacity="0.183"/><path d="M258.50 385.07L226.62 365.01" stroke-width=".75" opacity="0.177"/><path d="M258.50 385.07L230.68 360.11" stroke-width=".75" opacity="0.192"/><path d="M258.50 385.07L274.41 379.48" stroke-width=".75" opacity="0.192"/><path d="M369.13 371.96L409.37 355.63" stroke-width=".75" opacity="0.128"/><path d="M369.13 371.96L359.84 342.42" stroke-width=".75" opacity="0.103"/><path d="M363.32 386.73L329.29 371.48" stroke-width=".75" opacity="0.224"/><path d="M363.32 386.73L402.53 359.35" stroke-width=".75" opacity="0.224"/><path d="M257.59 370.75L265.18 350.72" stroke-width=".75" opacity="0.121"/><path d="M257.59 370.75L217.06 344.39" stroke-width=".75" opacity="0.147"/><path d="M427.30 371.13L453.71 357.42" stroke-width=".75" opacity="0.162"/><path d="M427.30 371.13L447.93 341.15" stroke-width=".75" opacity="0.142"/><path d="M274.41 379.48L230.68 360.11" stroke-width=".75" opacity="0.215"/><path d="M274.41 379.48L279.48 353.54" stroke-width=".75" opacity="0.222"/><path d="M322.75 359.73L359.84 342.42" stroke-width=".75" opacity="0.103"/><path d="M322.75 359.73L293.69 332.23" stroke-width=".75" opacity="0.100"/><path d="M419.65 373.52L402.53 359.35" stroke-width=".75" opacity="0.214"/><path d="M419.65 373.52L460.12 343.82" stroke-width=".75" opacity="0.211"/><path d="M226.62 365.01L199.40 339.37" stroke-width=".75" opacity="0.177"/><path d="M226.62 365.01L217.06 344.39" stroke-width=".75" opacity="0.151"/><path d="M409.37 355.63L404.04 326.87" stroke-width=".75" opacity="0.105"/><path d="M409.37 355.63L447.93 341.15" stroke-width=".75" opacity="0.128"/><path d="M329.29 371.48L361.35 343.25" stroke-width=".75" opacity="0.241"/><path d="M329.29 371.48L279.48 353.54" stroke-width=".75" opacity="0.241"/><path d="M265.18 350.72L229.62 324.70" stroke-width=".75" opacity="0.121"/><path d="M265.18 350.72L293.69 332.23" stroke-width=".75" opacity="0.100"/><path d="M453.71 357.42L476.48 327.39" stroke-width=".75" opacity="0.167"/><path d="M453.71 357.42L460.12 343.82" stroke-width=".75" opacity="0.183"/><path d="M230.68 360.11L228.60 333.60" stroke-width=".75" opacity="0.215"/><path d="M230.68 360.11L199.40 339.37" stroke-width=".75" opacity="0.195"/><path d="M359.84 342.42L335.64 315.40" stroke-width=".75" opacity="0.088"/><path d="M359.84 342.42L404.04 326.87" stroke-width=".75" opacity="0.103"/><path d="M402.53 359.35L442.59 329.18" stroke-width=".75" opacity="0.238"/><path d="M402.53 359.35L361.35 343.25" stroke-width=".75" opacity="0.238"/><path d="M217.06 344.39L188.25 318.78" stroke-width=".75" opacity="0.151"/><path d="M217.06 344.39L229.62 324.70" stroke-width=".75" opacity="0.123"/><path d="M447.93 341.15L447.24 312.39" stroke-width=".75" opacity="0.120"/><path d="M447.93 341.15L476.48 327.39" stroke-width=".75" opacity="0.142"/><path d="M279.48 353.54L304.63 325.01" stroke-width=".75" opacity="0.245"/><path d="M279.48 353.54L228.60 333.60" stroke-width=".75" opacity="0.237"/><path d="M293.69 332.23L260.66 306.51" stroke-width=".75" opacity="0.098"/><path d="M293.69 332.23L335.64 315.40" stroke-width=".75" opacity="0.088"/><path d="M460.12 343.82L487.80 313.34" stroke-width=".75" opacity="0.198"/><path d="M460.12 343.82L442.59 329.18" stroke-width=".75" opacity="0.211"/><path d="M199.40 339.37L189.75 312.88" stroke-width=".75" opacity="0.195"/><path d="M199.40 339.37L188.25 318.78" stroke-width=".75" opacity="0.166"/><path d="M404.04 326.87L384.05 299.90" stroke-width=".75" opacity="0.088"/><path d="M404.04 326.87L447.24 312.39" stroke-width=".75" opacity="0.105"/><path d="M361.35 343.25L401.17 312.79" stroke-width=".75" opacity="0.255"/><path d="M361.35 343.25L304.63 325.01" stroke-width=".75" opacity="0.255"/><path d="M229.62 324.70L198.82 299.32" stroke-width=".75" opacity="0.123"/><path d="M229.62 324.70L260.66 306.51" stroke-width=".75" opacity="0.098"/><path d="M476.48 327.39L482.00 298.19" stroke-width=".75" opacity="0.146"/><path d="M476.48 327.39L487.80 313.34" stroke-width=".75" opacity="0.167"/><path d="M228.60 333.60L245.15 305.19" stroke-width=".75" opacity="0.237"/><path d="M228.60 333.60L196.26 284.87" stroke-width=".75" opacity="0.236"/><path d="M335.64 315.40L304.67 289.82" stroke-width=".75" opacity="0.081"/><path d="M335.64 315.40L355.59 274.23" stroke-width=".75" opacity="0.077"/><path d="M442.59 329.18L476.43 298.18" stroke-width=".75" opacity="0.229"/><path d="M442.59 329.18L440.46 281.39" stroke-width=".75" opacity="0.238"/><path d="M188.25 318.78L171.30 292.60" stroke-width=".75" opacity="0.166"/><path d="M188.25 318.78L175.62 273.58" stroke-width=".75" opacity="0.152"/><path d="M447.24 312.39L432.16 285.11" stroke-width=".75" opacity="0.101"/><path d="M447.24 312.39L473.33 270.36" stroke-width=".75" opacity="0.120"/><path d="M304.63 325.01L341.79 294.53" stroke-width=".75" opacity="0.262"/><path d="M304.63 325.01L275.98 274.99" stroke-width=".75" opacity="0.262"/><path d="M260.66 306.51L228.34 281.40" stroke-width=".75" opacity="0.098"/><path d="M260.66 306.51L271.71 264.87" stroke-width=".75" opacity="0.083"/><path d="M487.80 313.34L501.35 283.49" stroke-width=".75" opacity="0.179"/><path d="M487.80 313.34L499.33 267.62" stroke-width=".75" opacity="0.198"/><path d="M189.75 312.88L196.26 284.87" stroke-width=".75" opacity="0.216"/><path d="M189.75 312.88L167.54 265.16" stroke-width=".75" opacity="0.208"/><path d="M384.05 299.90L355.59 274.23" stroke-width=".75" opacity="0.077"/><path d="M384.05 299.90L407.29 259.14" stroke-width=".75" opacity="0.085"/><path d="M401.17 312.79L440.46 281.39" stroke-width=".75" opacity="0.255"/><path d="M401.17 312.79L383.62 262.98" stroke-width=".75" opacity="0.260"/><path d="M198.82 299.32L175.62 273.58" stroke-width=".75" opacity="0.134"/><path d="M198.82 299.32L200.37 256.07" stroke-width=".75" opacity="0.119"/><path d="M482.00 298.19L473.33 270.36" stroke-width=".75" opacity="0.125"/><path d="M482.00 298.19L500.97 254.94" stroke-width=".75" opacity="0.146"/><path d="M245.15 305.19L275.98 274.99" stroke-width=".75" opacity="0.255"/><path d="M245.15 305.19L217.56 255.18" stroke-width=".75" opacity="0.254"/><path d="M304.67 289.82L271.71 264.87" stroke-width=".75" opacity="0.081"/><path d="M304.67 289.82L323.10 249.29" stroke-width=".75" opacity="0.073"/><path d="M476.43 298.18L499.33 267.62" stroke-width=".75" opacity="0.213"/><path d="M476.43 298.18L472.68 250.22" stroke-width=".75" opacity="0.229"/><path d="M171.30 292.60L167.54 265.16" stroke-width=".75" opacity="0.186"/><path d="M171.30 292.60L162.65 246.77" stroke-width=".75" opacity="0.173"/><path d="M432.16 285.11L407.29 259.14" stroke-width=".75" opacity="0.085"/><path d="M432.16 285.11L453.59 243.90" stroke-width=".75" opacity="0.101"/><path d="M341.79 294.53L383.62 262.98" stroke-width=".75" opacity="0.271"/><path d="M341.79 294.53L315.83 243.56" stroke-width=".75" opacity="0.271"/><path d="M228.34 281.40L200.37 256.07" stroke-width=".75" opacity="0.105"/><path d="M228.34 281.40L240.57 239.87" stroke-width=".75" opacity="0.092"/><path d="M501.35 283.49L500.97 254.94" stroke-width=".75" opacity="0.157"/><path d="M501.35 283.49L509.02 238.29" stroke-width=".75" opacity="0.179"/><path d="M196.26 284.87L217.56 255.18" stroke-width=".75" opacity="0.236"/><path d="M196.26 284.87L177.75 236.15" stroke-width=".75" opacity="0.228"/><path d="M355.59 274.23L323.10 249.29" stroke-width=".75" opacity="0.073"/><path d="M355.59 274.23L376.54 234.04" stroke-width=".75" opacity="0.076"/><path d="M440.46 281.39L472.68 250.22" stroke-width=".75" opacity="0.243"/><path d="M440.46 281.39L423.03 231.38" stroke-width=".75" opacity="0.255"/><path d="M175.62 273.58L162.65 246.77" stroke-width=".75" opacity="0.152"/><path d="M175.62 273.58L179.99 229.87" stroke-width=".75" opacity="0.138"/><path d="M473.33 270.36L453.59 243.90" stroke-width=".75" opacity="0.106"/><path d="M473.33 270.36L488.26 227.84" stroke-width=".75" opacity="0.125"/><path d="M275.98 274.99L315.83 243.56" stroke-width=".75" opacity="0.269"/><path d="M275.98 274.99L250.80 224.14" stroke-width=".75" opacity="0.266"/><path d="M271.71 264.87L240.57 239.87" stroke-width=".75" opacity="0.083"/><path d="M271.71 264.87L290.30 224.48" stroke-width=".75" opacity="0.077"/><path d="M499.33 267.62L509.02 238.29" stroke-width=".75" opacity="0.193"/><path d="M499.33 267.62L493.36 220.13" stroke-width=".75" opacity="0.213"/><path d="M167.54 265.16L177.75 236.15" stroke-width=".75" opacity="0.208"/><path d="M167.54 265.16L162.06 218.51" stroke-width=".75" opacity="0.195"/><path d="M407.29 259.14L376.54 234.04" stroke-width=".75" opacity="0.076"/><path d="M407.29 259.14L426.07 218.46" stroke-width=".75" opacity="0.085"/><path d="M383.62 262.98L423.03 231.38" stroke-width=".75" opacity="0.265"/><path d="M383.62 262.98L358.27 211.79" stroke-width=".75" opacity="0.272"/><path d="M200.37 256.07L179.99 229.87" stroke-width=".75" opacity="0.119"/><path d="M200.37 256.07L214.73 214.19" stroke-width=".75" opacity="0.108"/><path d="M500.97 254.94L488.26 227.84" stroke-width=".75" opacity="0.136"/><path d="M500.97 254.94L505.33 210.46" stroke-width=".75" opacity="0.157"/><path d="M217.56 255.18L250.80 224.14" stroke-width=".75" opacity="0.254"/><path d="M217.56 255.18L201.29 205.70" stroke-width=".75" opacity="0.244"/><path d="M323.10 249.29L290.30 224.48" stroke-width=".75" opacity="0.073"/><path d="M323.10 249.29L343.49 209.25" stroke-width=".75" opacity="0.073"/><path d="M472.68 250.22L493.36 220.13" stroke-width=".75" opacity="0.226"/><path d="M472.68 250.22L453.91 200.68" stroke-width=".75" opacity="0.243"/><path d="M162.65 246.77L162.06 218.51" stroke-width=".75" opacity="0.173"/><path d="M162.65 246.77L170.13 202.37" stroke-width=".75" opacity="0.160"/><path d="M453.59 243.90L426.07 218.46" stroke-width=".75" opacity="0.092"/><path d="M453.59 243.90L465.70 201.93" stroke-width=".75" opacity="0.106"/><path d="M315.83 243.56L358.27 211.79" stroke-width=".75" opacity="0.275"/><path d="M315.83 243.56L291.22 192.48" stroke-width=".75" opacity="0.271"/><path d="M240.57 239.87L214.73 214.19" stroke-width=".75" opacity="0.092"/><path d="M240.57 239.87L260.76 199.17" stroke-width=".75" opacity="0.088"/><path d="M509.02 238.29L505.33 210.46" stroke-width=".75" opacity="0.171"/><path d="M509.02 238.29L500.27 191.59" stroke-width=".75" opacity="0.193"/><path d="M177.75 236.15L201.29 205.70" stroke-width=".75" opacity="0.228"/><path d="M177.75 236.15L174.95 188.80" stroke-width=".75" opacity="0.214"/><path d="M376.54 234.04L343.49 209.25" stroke-width=".75" opacity="0.074"/><path d="M376.54 234.04L394.14 193.52" stroke-width=".75" opacity="0.076"/><path d="M423.03 231.38L453.91 200.68" stroke-width=".75" opacity="0.252"/><path d="M423.03 231.38L396.45 180.67" stroke-width=".75" opacity="0.265"/><path d="M179.99 229.87L170.13 202.37" stroke-width=".75" opacity="0.138"/><path d="M179.99 229.87L197.58 187.35" stroke-width=".75" opacity="0.128"/><path d="M488.26 227.84L465.70 201.93" stroke-width=".75" opacity="0.118"/><path d="M488.26 227.84L489.61 184.01" stroke-width=".75" opacity="0.136"/><path d="M250.80 224.14L291.22 192.48" stroke-width=".75" opacity="0.266"/><path d="M250.80 224.14L235.49 174.40" stroke-width=".75" opacity="0.255"/><path d="M290.30 224.48L260.76 199.17" stroke-width=".75" opacity="0.077"/><path d="M290.30 224.48L311.73 184.14" stroke-width=".75" opacity="0.077"/><path d="M493.36 220.13L500.27 191.59" stroke-width=".75" opacity="0.205"/><path d="M493.36 220.13L471.82 171.50" stroke-width=".75" opacity="0.226"/><path d="M162.06 218.51L174.95 188.80" stroke-width=".75" opacity="0.195"/><path d="M162.06 218.51L173.18 173.43" stroke-width=".75" opacity="0.181"/><path d="M426.07 218.46L394.14 193.52" stroke-width=".75" opacity="0.084"/><path d="M426.07 218.46L436.26 176.71" stroke-width=".75" opacity="0.092"/><path d="M358.27 211.79L396.45 180.67" stroke-width=".75" opacity="0.266"/><path d="M358.27 211.79L332.37 161.19" stroke-width=".75" opacity="0.268"/><path d="M214.73 214.19L197.58 187.35" stroke-width=".75" opacity="0.108"/><path d="M214.73 214.19L238.21 172.83" stroke-width=".75" opacity="0.104"/><path d="M505.33 210.46L489.61 184.01" stroke-width=".75" opacity="0.150"/><path d="M505.33 210.46L493.06 164.57" stroke-width=".75" opacity="0.171"/><path d="M201.29 205.70L235.49 174.40" stroke-width=".75" opacity="0.244"/><path d="M201.29 205.70L200.79 158.07" stroke-width=".75" opacity="0.229"/><path d="M343.49 209.25L311.73 184.14" stroke-width=".75" opacity="0.074"/><path d="M343.49 209.25L361.32 168.42" stroke-width=".75" opacity="0.074"/><path d="M453.91 200.68L471.82 171.50" stroke-width=".75" opacity="0.233"/><path d="M453.91 200.68L424.06 151.01" stroke-width=".75" opacity="0.251"/><path d="M170.13 202.37L173.18 173.43" stroke-width=".75" opacity="0.160"/><path d="M170.13 202.37L192.52 159.11" stroke-width=".75" opacity="0.149"/><path d="M465.70 201.93L436.26 176.71" stroke-width=".75" opacity="0.105"/><path d="M465.70 201.93L464.04 158.43" stroke-width=".75" opacity="0.118"/><path d="M291.22 192.48L332.37 161.19" stroke-width=".75" opacity="0.268"/><path d="M291.22 192.48L275.40 143.24" stroke-width=".75" opacity="0.257"/><path d="M260.76 199.17L238.21 172.83" stroke-width=".75" opacity="0.088"/><path d="M260.76 199.17L285.21 158.08" stroke-width=".75" opacity="0.088"/><path d="M500.27 191.59L493.06 164.57" stroke-width=".75" opacity="0.183"/><path d="M500.27 191.59L474.15 144.01" stroke-width=".75" opacity="0.205"/><path d="M174.95 188.80L200.79 158.07" stroke-width=".75" opacity="0.214"/><path d="M174.95 188.80L190.62 143.35" stroke-width=".75" opacity="0.199"/><path d="M394.14 193.52L361.32 168.42" stroke-width=".75" opacity="0.084"/><path d="M394.14 193.52L403.24 151.46" stroke-width=".75" opacity="0.084"/><path d="M396.45 180.67L424.06 151.01" stroke-width=".75" opacity="0.251"/><path d="M396.45 180.67L366.93 131.32" stroke-width=".75" opacity="0.257"/><path d="M197.58 187.35L192.52 159.11" stroke-width=".75" opacity="0.128"/><path d="M197.58 187.35L226.83 145.09" stroke-width=".75" opacity="0.125"/><path d="M489.61 184.01L464.04 158.43" stroke-width=".75" opacity="0.134"/><path d="M489.61 184.01L472.55 138.65" stroke-width=".75" opacity="0.150"/><path d="M235.49 174.40L275.40 143.24" stroke-width=".75" opacity="0.255"/><path d="M235.49 174.40L236.86 127.26" stroke-width=".75" opacity="0.236"/><path d="M311.73 184.14L285.21 158.08" stroke-width=".75" opacity="0.079"/><path d="M311.73 184.14L331.68 142.40" stroke-width=".75" opacity="0.079"/><path d="M471.82 171.50L474.15 144.01" stroke-width=".75" opacity="0.212"/><path d="M471.82 171.50L435.84 123.28" stroke-width=".75" opacity="0.231"/><path d="M173.18 173.43L190.62 143.35" stroke-width=".75" opacity="0.181"/><path d="M173.18 173.43L202.90 129.59" stroke-width=".75" opacity="0.169"/><path d="M436.26 176.71L403.24 151.46" stroke-width=".75" opacity="0.101"/><path d="M436.26 176.71L464.04 158.43" stroke-width=".75" opacity="0.105"/><path d="M332.37 161.19L366.93 131.32" stroke-width=".75" opacity="0.257"/><path d="M332.37 161.19L275.40 143.24" stroke-width=".75" opacity="0.257"/><path d="M238.21 172.83L226.83 145.09" stroke-width=".75" opacity="0.104"/><path d="M238.21 172.83L285.21 158.08" stroke-width=".75" opacity="0.092"/><path d="M493.06 164.57L472.55 138.65" stroke-width=".75" opacity="0.165"/><path d="M493.06 164.57L474.15 144.01" stroke-width=".75" opacity="0.183"/><path d="M200.79 158.07L236.86 127.26" stroke-width=".75" opacity="0.229"/><path d="M200.79 158.07L190.62 143.35" stroke-width=".75" opacity="0.199"/><path d="M361.32 168.42L331.68 142.40" stroke-width=".75" opacity="0.084"/><path d="M361.32 168.42L403.24 151.46" stroke-width=".75" opacity="0.084"/><path d="M424.06 151.01L435.84 123.28" stroke-width=".75" opacity="0.231"/><path d="M424.06 151.01L366.93 131.32" stroke-width=".75" opacity="0.251"/><path d="M192.52 159.11L202.90 129.59" stroke-width=".75" opacity="0.149"/><path d="M192.52 159.11L226.83 145.09" stroke-width=".75" opacity="0.125"/><path d="M464.04 158.43L431.23 132.92" stroke-width=".75" opacity="0.125"/><path d="M464.04 158.43L472.55 138.65" stroke-width=".75" opacity="0.134"/><path d="M275.40 143.24L313.94 113.46" stroke-width=".75" opacity="0.249"/><path d="M275.40 143.24L236.86 127.26" stroke-width=".75" opacity="0.236"/><path d="M285.21 158.08L268.89 130.51" stroke-width=".75" opacity="0.092"/><path d="M285.21 158.08L331.68 142.40" stroke-width=".75" opacity="0.092"/><path d="M474.15 144.01L459.33 117.93" stroke-width=".75" opacity="0.191"/><path d="M474.15 144.01L435.84 123.28" stroke-width=".75" opacity="0.212"/><path d="M190.62 143.35L222.56 113.01" stroke-width=".75" opacity="0.199"/><path d="M190.62 143.35L202.90 129.59" stroke-width=".75" opacity="0.169"/><path d="M403.24 151.46L370.45 125.21" stroke-width=".75" opacity="0.101"/><path d="M403.24 151.46L431.23 132.92" stroke-width=".75" opacity="0.101"/><path d="M366.93 131.32L387.17 103.72" stroke-width=".75" opacity="0.238"/><path d="M366.93 131.32L313.94 113.46" stroke-width=".75" opacity="0.249"/><path d="M226.83 145.09L232.11 115.83" stroke-width=".75" opacity="0.125"/><path d="M226.83 145.09L268.89 130.51" stroke-width=".75" opacity="0.112"/><path d="M472.55 138.65L439.54 112.95" stroke-width=".75" opacity="0.152"/><path d="M472.55 138.65L459.33 117.93" stroke-width=".75" opacity="0.165"/><path d="M236.86 127.26L277.99 97.91" stroke-width=".75" opacity="0.231"/><path d="M236.86 127.26L222.56 113.01" stroke-width=".75" opacity="0.209"/><path d="M331.68 142.40L310.81 114.55" stroke-width=".75" opacity="0.093"/><path d="M331.68 142.40L370.45 125.21" stroke-width=".75" opacity="0.093"/><path d="M435.84 123.28L426.56 97.49" stroke-width=".75" opacity="0.208"/><path d="M435.84 123.28L387.17 103.72" stroke-width=".75" opacity="0.231"/><path d="M202.90 129.59L232.77 99.58" stroke-width=".75" opacity="0.169"/><path d="M202.90 129.59L232.11 115.83" stroke-width=".75" opacity="0.147"/><path d="M431.23 132.92L439.54 112.95" stroke-width=".75" opacity="0.125"/><path d="M431.23 132.92L393.59 106.20" stroke-width=".75" opacity="0.125"/><path d="M313.94 113.46L277.99 97.91" stroke-width=".75" opacity="0.231"/><path d="M313.94 113.46L342.00 86.58" stroke-width=".75" opacity="0.230"/><path d="M268.89 130.51L310.81 114.55" stroke-width=".75" opacity="0.112"/><path d="M268.89 130.51L271.00 100.88" stroke-width=".75" opacity="0.112"/><path d="M459.33 117.93L426.56 97.49" stroke-width=".75" opacity="0.191"/><path d="M459.33 117.93L423.94 92.38" stroke-width=".75" opacity="0.175"/><path d="M222.56 113.01L232.77 99.58" stroke-width=".75" opacity="0.183"/><path d="M222.56 113.01L268.51 84.30" stroke-width=".75" opacity="0.207"/><path d="M370.45 125.21L393.59 106.20" stroke-width=".75" opacity="0.106"/><path d="M370.45 125.21L343.17 96.34" stroke-width=".75" opacity="0.106"/><path d="M387.17 103.72L342.00 86.58" stroke-width=".75" opacity="0.230"/><path d="M387.17 103.72L382.50 79.20" stroke-width=".75" opacity="0.210"/><path d="M232.11 115.83L271.00 100.88" stroke-width=".75" opacity="0.136"/><path d="M232.11 115.83L265.21 85.49" stroke-width=".75" opacity="0.147"/><path d="M439.54 112.95L423.94 92.38" stroke-width=".75" opacity="0.152"/><path d="M439.54 112.95L390.61 85.60" stroke-width=".75" opacity="0.152"/><path d="M277.99 97.91L268.51 84.30" stroke-width=".75" opacity="0.207"/><path d="M277.99 97.91L317.23 72.83" stroke-width=".75" opacity="0.209"/><path d="M310.81 114.55L343.17 96.34" stroke-width=".75" opacity="0.112"/><path d="M310.81 114.55L271.00 100.88" stroke-width=".75" opacity="0.112"/><path d="M426.56 97.49L382.50 79.20" stroke-width=".75" opacity="0.208"/><path d="M426.56 97.49L423.94 92.38" stroke-width=".75" opacity="0.175"/><path d="M232.77 99.58L265.21 85.49" stroke-width=".75" opacity="0.166"/><path d="M232.77 99.58L268.51 84.30" stroke-width=".75" opacity="0.183"/><path d="M393.59 106.20L390.61 85.60" stroke-width=".75" opacity="0.128"/><path d="M393.59 106.20L343.17 96.34" stroke-width=".75" opacity="0.127"/><path d="M342.00 86.58L317.23 72.83" stroke-width=".75" opacity="0.209"/><path d="M342.00 86.58L382.50 79.20" stroke-width=".75" opacity="0.210"/><path d="M271.00 100.88L311.50 82.97" stroke-width=".75" opacity="0.136"/><path d="M271.00 100.88L265.21 85.49" stroke-width=".75" opacity="0.136"/><path d="M423.94 92.38L390.61 85.60" stroke-width=".75" opacity="0.154"/><path d="M423.94 92.38L380.01 73.42" stroke-width=".75" opacity="0.175"/><path d="M268.51 84.30L317.23 72.83" stroke-width=".75" opacity="0.207"/><path d="M268.51 84.30L298.24 71.61" stroke-width=".75" opacity="0.182"/><path d="M343.17 96.34L311.50 82.97" stroke-width=".75" opacity="0.127"/><path d="M382.50 79.20L380.01 73.42" stroke-width=".75" opacity="0.184"/><path d="M265.21 85.49L298.24 71.61" stroke-width=".75" opacity="0.166"/><path d="M390.61 85.60L347.01 74.03" stroke-width=".75" opacity="0.154"/><path d="M390.61 85.60L380.01 73.42" stroke-width=".75" opacity="0.154"/><path d="M317.23 72.83L298.24 71.61" stroke-width=".75" opacity="0.182"/><path d="M311.50 82.97L347.01 74.03" stroke-width=".75" opacity="0.145"/><path d="M311.50 82.97L335.00 69.00" stroke-width=".75" opacity="0.145"/><path d="M380.01 73.42L335.00 69.00" stroke-width=".75" opacity="0.174"/><path d="M380.01 73.42L347.01 74.03" stroke-width=".75" opacity="0.159"/><path d="M298.24 71.61L335.00 69.00" stroke-width=".75" opacity="0.174"/><path d="M347.01 74.03L335.00 69.00" stroke-width=".75" opacity="0.159"/><path d="M64 250C165 250 275.64 315.40 335.64 315.40" opacity=".55"/><path d="M64 250C165 250 412.68 250.22 472.68 250.22" opacity=".55"/><path d="M64 250C165 250 301.32 168.42 361.32 168.42" opacity=".55"/></g><g fill="#0b64f4"><circle cx="335.00" cy="401.00" r="2.8" opacity="0.580"/><circle cx="314.29" cy="401.10" r="1.35" opacity="0.617"/><circle cx="338.32" cy="392.30" r="1.35" opacity="0.504"/><circle cx="364.82" cy="399.06" r="1.35" opacity="0.654"/><circle cx="281.35" cy="391.35" r="1.35" opacity="0.561"/><circle cx="385.39" cy="386.69" r="1.35" opacity="0.516"/><circle cx="316.83" cy="395.63" r="1.35" opacity="0.707"/><circle cx="303.34" cy="379.36" r="1.35" opacity="0.455"/><circle cx="408.30" cy="386.74" r="1.35" opacity="0.632"/><circle cx="258.50" cy="385.07" r="1.35" opacity="0.641"/><circle cx="369.13" cy="371.96" r="1.35" opacity="0.429"/><circle cx="363.32" cy="386.73" r="1.35" opacity="0.747"/><circle cx="257.59" cy="370.75" r="1.35" opacity="0.489"/><circle cx="427.30" cy="371.13" r="2.8" opacity="0.540"/><circle cx="274.41" cy="379.48" r="1.35" opacity="0.739"/><circle cx="322.75" cy="359.73" r="1.35" opacity="0.381"/><circle cx="419.65" cy="373.52" r="1.35" opacity="0.713"/><circle cx="226.62" cy="365.01" r="1.35" opacity="0.589"/><circle cx="409.37" cy="355.63" r="1.35" opacity="0.426"/><circle cx="329.29" cy="371.48" r="1.35" opacity="0.803"/><circle cx="265.18" cy="350.72" r="1.35" opacity="0.405"/><circle cx="453.71" cy="357.42" r="1.35" opacity="0.611"/><circle cx="230.68" cy="360.11" r="1.35" opacity="0.716"/><circle cx="359.84" cy="342.42" r="1.35" opacity="0.344"/><circle cx="402.53" cy="359.35" r="1.35" opacity="0.793"/><circle cx="217.06" cy="344.39" r="1.35" opacity="0.504"/><circle cx="447.93" cy="341.15" r="2.8" opacity="0.473"/><circle cx="279.48" cy="353.54" r="1.35" opacity="0.818"/><circle cx="293.69" cy="332.23" r="1.35" opacity="0.334"/><circle cx="460.12" cy="343.82" r="1.35" opacity="0.703"/><circle cx="199.40" cy="339.37" r="1.35" opacity="0.648"/><circle cx="404.04" cy="326.87" r="1.35" opacity="0.351"/><circle cx="361.35" cy="343.25" r="1.35" opacity="0.851"/><circle cx="229.62" cy="324.70" r="1.35" opacity="0.410"/><circle cx="476.48" cy="327.39" r="1.35" opacity="0.557"/><circle cx="228.60" cy="333.60" r="1.35" opacity="0.789"/><circle cx="335.64" cy="315.40" r="1.35" opacity="0.293"/><circle cx="442.59" cy="329.18" r="1.35" opacity="0.795"/><circle cx="188.25" cy="318.78" r="1.35" opacity="0.553"/><circle cx="447.24" cy="312.39" r="2.8" opacity="0.402"/><circle cx="304.63" cy="325.01" r="1.35" opacity="0.873"/><circle cx="260.66" cy="306.51" r="1.35" opacity="0.326"/><circle cx="487.80" cy="313.34" r="1.35" opacity="0.660"/><circle cx="189.75" cy="312.88" r="1.35" opacity="0.719"/><circle cx="384.05" cy="299.90" r="1.35" opacity="0.293"/><circle cx="401.17" cy="312.79" r="1.35" opacity="0.866"/><circle cx="198.82" cy="299.32" r="1.35" opacity="0.447"/><circle cx="482.00" cy="298.19" r="1.35" opacity="0.488"/><circle cx="245.15" cy="305.19" r="1.35" opacity="0.851"/><circle cx="304.67" cy="289.82" r="1.35" opacity="0.271"/><circle cx="476.43" cy="298.18" r="1.35" opacity="0.764"/><circle cx="171.30" cy="292.60" r="1.35" opacity="0.620"/><circle cx="432.16" cy="285.11" r="2.8" opacity="0.336"/><circle cx="341.79" cy="294.53" r="1.35" opacity="0.902"/><circle cx="228.34" cy="281.40" r="1.35" opacity="0.349"/><circle cx="501.35" cy="283.49" r="1.35" opacity="0.597"/><circle cx="196.26" cy="284.87" r="1.35" opacity="0.788"/><circle cx="355.59" cy="274.23" r="1.35" opacity="0.255"/><circle cx="440.46" cy="281.39" r="1.35" opacity="0.851"/><circle cx="175.62" cy="273.58" r="1.35" opacity="0.506"/><circle cx="473.33" cy="270.36" r="1.35" opacity="0.417"/><circle cx="275.98" cy="274.99" r="1.35" opacity="0.896"/><circle cx="271.71" cy="264.87" r="1.35" opacity="0.277"/><circle cx="499.33" cy="267.62" r="1.35" opacity="0.710"/><circle cx="167.54" cy="265.16" r="1.35" opacity="0.692"/><circle cx="407.29" cy="259.14" r="2.8" opacity="0.284"/><circle cx="383.62" cy="262.98" r="1.35" opacity="0.906"/><circle cx="200.37" cy="256.07" r="1.35" opacity="0.396"/><circle cx="500.97" cy="254.94" r="1.35" opacity="0.524"/><circle cx="217.56" cy="255.18" r="1.35" opacity="0.846"/><circle cx="323.10" cy="249.29" r="1.35" opacity="0.243"/><circle cx="472.68" cy="250.22" r="1.35" opacity="0.811"/><circle cx="162.65" cy="246.77" r="1.35" opacity="0.577"/><circle cx="453.59" cy="243.90" r="1.35" opacity="0.353"/><circle cx="315.83" cy="243.56" r="1.35" opacity="0.918"/><circle cx="240.57" cy="239.87" r="1.35" opacity="0.308"/><circle cx="509.02" cy="238.29" r="1.35" opacity="0.642"/><circle cx="177.75" cy="236.15" r="1.35" opacity="0.760"/><circle cx="376.54" cy="234.04" r="2.8" opacity="0.253"/><circle cx="423.03" cy="231.38" r="1.35" opacity="0.883"/><circle cx="179.99" cy="229.87" r="1.35" opacity="0.460"/><circle cx="488.26" cy="227.84" r="1.35" opacity="0.453"/><circle cx="250.80" cy="224.14" r="1.35" opacity="0.886"/><circle cx="290.30" cy="224.48" r="1.35" opacity="0.255"/><circle cx="493.36" cy="220.13" r="1.35" opacity="0.753"/><circle cx="162.06" cy="218.51" r="1.35" opacity="0.649"/><circle cx="426.07" cy="218.46" r="1.35" opacity="0.305"/><circle cx="358.27" cy="211.79" r="1.35" opacity="0.915"/><circle cx="214.73" cy="214.19" r="1.35" opacity="0.360"/><circle cx="505.33" cy="210.46" r="1.35" opacity="0.569"/><circle cx="201.29" cy="205.70" r="1.35" opacity="0.814"/><circle cx="343.49" cy="209.25" r="2.8" opacity="0.246"/><circle cx="453.91" cy="200.68" r="1.35" opacity="0.839"/><circle cx="170.13" cy="202.37" r="1.35" opacity="0.532"/><circle cx="465.70" cy="201.93" r="1.35" opacity="0.393"/><circle cx="291.22" cy="192.48" r="1.35" opacity="0.902"/><circle cx="260.76" cy="199.17" r="1.35" opacity="0.292"/><circle cx="500.27" cy="191.59" r="1.35" opacity="0.683"/><circle cx="174.95" cy="188.80" r="1.35" opacity="0.715"/><circle cx="394.14" cy="193.52" r="1.35" opacity="0.280"/><circle cx="396.45" cy="180.67" r="1.35" opacity="0.887"/><circle cx="197.58" cy="187.35" r="1.35" opacity="0.426"/><circle cx="489.61" cy="184.01" r="1.35" opacity="0.501"/><circle cx="235.49" cy="174.40" r="1.35" opacity="0.848"/><circle cx="311.73" cy="184.14" r="2.8" opacity="0.265"/><circle cx="471.82" cy="171.50" r="1.35" opacity="0.777"/><circle cx="173.18" cy="173.43" r="1.35" opacity="0.603"/><circle cx="436.26" cy="176.71" r="1.35" opacity="0.351"/><circle cx="332.37" cy="161.19" r="1.35" opacity="0.893"/><circle cx="238.21" cy="172.83" r="1.35" opacity="0.348"/><circle cx="493.06" cy="164.57" r="1.35" opacity="0.611"/><circle cx="200.79" cy="158.07" r="1.35" opacity="0.763"/><circle cx="361.32" cy="168.42" r="1.35" opacity="0.281"/><circle cx="424.06" cy="151.01" r="1.35" opacity="0.837"/><circle cx="192.52" cy="159.11" r="1.35" opacity="0.498"/><circle cx="464.04" cy="158.43" r="1.35" opacity="0.447"/><circle cx="275.40" cy="143.24" r="1.35" opacity="0.856"/><circle cx="285.21" cy="158.08" r="2.8" opacity="0.308"/><circle cx="474.15" cy="144.01" r="1.35" opacity="0.707"/><circle cx="190.62" cy="143.35" r="1.35" opacity="0.662"/><circle cx="403.24" cy="151.46" r="1.35" opacity="0.336"/><circle cx="366.93" cy="131.32" r="1.35" opacity="0.856"/><circle cx="226.83" cy="145.09" r="1.35" opacity="0.417"/><circle cx="472.55" cy="138.65" r="1.35" opacity="0.549"/><circle cx="236.86" cy="127.26" r="1.35" opacity="0.785"/><circle cx="331.68" cy="142.40" r="1.35" opacity="0.311"/><circle cx="435.84" cy="123.28" r="1.35" opacity="0.771"/><circle cx="202.90" cy="129.59" r="1.35" opacity="0.564"/><circle cx="431.23" cy="132.92" r="1.35" opacity="0.418"/><circle cx="313.94" cy="113.46" r="1.35" opacity="0.831"/><circle cx="268.89" cy="130.51" r="2.8" opacity="0.373"/><circle cx="459.33" cy="117.93" r="1.35" opacity="0.637"/><circle cx="222.56" cy="113.01" r="1.35" opacity="0.697"/><circle cx="370.45" cy="125.21" r="1.35" opacity="0.355"/><circle cx="387.17" cy="103.72" r="1.35" opacity="0.793"/><circle cx="232.11" cy="115.83" r="1.35" opacity="0.489"/><circle cx="439.54" cy="112.95" r="1.35" opacity="0.508"/><circle cx="277.99" cy="97.91" r="1.35" opacity="0.771"/><circle cx="310.81" cy="114.55" r="1.35" opacity="0.374"/><circle cx="426.56" cy="97.49" r="1.35" opacity="0.694"/><circle cx="232.77" cy="99.58" r="1.35" opacity="0.611"/><circle cx="393.59" cy="106.20" r="1.35" opacity="0.428"/><circle cx="342.00" cy="86.58" r="1.35" opacity="0.768"/><circle cx="271.00" cy="100.88" r="2.8" opacity="0.455"/><circle cx="423.94" cy="92.38" r="1.35" opacity="0.583"/><circle cx="268.51" cy="84.30" r="1.35" opacity="0.690"/><circle cx="343.17" cy="96.34" r="1.35" opacity="0.422"/><circle cx="382.50" cy="79.20" r="1.35" opacity="0.701"/><circle cx="265.21" cy="85.49" r="1.35" opacity="0.553"/><circle cx="390.61" cy="85.60" r="1.35" opacity="0.512"/><circle cx="317.23" cy="72.83" r="1.35" opacity="0.695"/><circle cx="311.50" cy="82.97" r="1.35" opacity="0.483"/><circle cx="380.01" cy="73.42" r="1.35" opacity="0.614"/><circle cx="298.24" cy="71.61" r="1.35" opacity="0.608"/><circle cx="347.01" cy="74.03" r="1.35" opacity="0.531"/><circle cx="335.00" cy="69.00" r="1.35" opacity="0.580"/></g><circle cx="64" cy="250" r="42" fill="#0b64f4" opacity=".025"/><circle cx="64" cy="250" r="35" fill="#0b64f4" opacity=".04"/><circle cx="64" cy="250" r="28" fill="#f2efe7" stroke="#0b64f4"/><text x="64" y="259" text-anchor="middle" fill="#0b64f4" font-family="Georgia,serif" font-size="28">Q_</text></svg>